<?xml version="1.0" encoding="UTF-8"?>
<svg width="152px" height="152px" viewBox="0 0 152 152" version="1.1" xmlns="http://www.w3.org/2000/svg" xmlns:xlink="http://www.w3.org/1999/xlink">
    <title>编组 12@3x</title>
    <defs>
        <linearGradient x1="50%" y1="100%" x2="50%" y2="0%" id="linearGradient-1">
            <stop stop-color="#E4E7F0" offset="0%"></stop>
            <stop stop-color="#F5F6F9" offset="100%"></stop>
        </linearGradient>
        <circle id="path-2" cx="62" cy="62" r="62"></circle>
        <linearGradient x1="36.3642935%" y1="4.62004466%" x2="50%" y2="89.1272189%" id="linearGradient-4">
            <stop stop-color="#ECEEF5" offset="0%"></stop>
            <stop stop-color="#D4D9E8" offset="100%"></stop>
        </linearGradient>
        <filter x="-34.1%" y="0.0%" width="168.2%" height="100.0%" filterUnits="objectBoundingBox" id="filter-5">
            <feGaussianBlur stdDeviation="10 0" in="SourceGraphic"></feGaussianBlur>
        </filter>
        <radialGradient cx="62.1768087%" cy="19.1437483%" fx="62.1768087%" fy="19.1437483%" r="69.6463445%" gradientTransform="translate(0.621768,0.191437),scale(0.701532,1.000000),rotate(88.802534),translate(-0.621768,-0.191437)" id="radialGradient-6">
            <stop stop-color="#FFFFFF" offset="0%"></stop>
            <stop stop-color="#FEFEFF" offset="49.0971034%"></stop>
            <stop stop-color="#F3F4F8" offset="100%"></stop>
        </radialGradient>
        <radialGradient cx="37.9362351%" cy="9.4993634%" fx="37.9362351%" fy="9.4993634%" r="90.7623495%" gradientTransform="translate(0.379362,0.094994),scale(0.908371,1.000000),rotate(52.223508),translate(-0.379362,-0.094994)" id="radialGradient-7">
            <stop stop-color="#FFFFFF" offset="0%"></stop>
            <stop stop-color="#FEFEFF" offset="50.5984478%"></stop>
            <stop stop-color="#F3F4F8" offset="100%"></stop>
        </radialGradient>
        <linearGradient x1="61.4197601%" y1="35.4883636%" x2="42.5525862%" y2="54.0433727%" id="linearGradient-8">
            <stop stop-color="#FFFFFF" offset="0%"></stop>
            <stop stop-color="#F3F4F8" offset="100%"></stop>
        </linearGradient>
        <linearGradient x1="40.8211501%" y1="25.6060035%" x2="40.8211501%" y2="127.196212%" id="linearGradient-9">
            <stop stop-color="#FFFFFF" offset="0%"></stop>
            <stop stop-color="#F3F4F8" offset="100%"></stop>
        </linearGradient>
        <radialGradient cx="32.2977826%" cy="15.7903815%" fx="32.2977826%" fy="15.7903815%" r="88.9999519%" gradientTransform="translate(0.322978,0.157904),scale(0.958832,1.000000),rotate(53.712579),translate(-0.322978,-0.157904)" id="radialGradient-10">
            <stop stop-color="#FFFFFF" offset="0%"></stop>
            <stop stop-color="#FEFEFF" offset="49.0971034%"></stop>
            <stop stop-color="#F3F4F8" offset="100%"></stop>
        </radialGradient>
        <linearGradient x1="56.261246%" y1="36.862327%" x2="27.1746432%" y2="92.7965225%" id="linearGradient-11">
            <stop stop-color="#FFFFFF" offset="0%"></stop>
            <stop stop-color="#FEFEFE" offset="100%"></stop>
        </linearGradient>
        <linearGradient x1="50%" y1="-51.0506882%" x2="50%" y2="124.856998%" id="linearGradient-12">
            <stop stop-color="#D8DBE4" offset="0%"></stop>
            <stop stop-color="#FCFDFF" offset="100%"></stop>
        </linearGradient>
    </defs>
    <g id="精准招商" stroke="none" stroke-width="1" fill="none" fill-rule="evenodd">
        <g id="精准招商-空状态备份" transform="translate(-131.000000, -372.000000)">
            <g id="编组" transform="translate(131.000000, 372.000000)">
                <g id="矩形备份-7" transform="translate(14.000000, 17.857991)">
                    <mask id="mask-3" fill="white">
                        <use xlink:href="#path-2"></use>
                    </mask>
                    <use id="蒙版" fill="url(#linearGradient-1)" xlink:href="#path-2"></use>
                    <path d="M90,14 C111.539105,14 129,29.3390542 129,48.2607366 C129,58.3840417 124.085504,67.6586803 111.071904,71.8158797 C106.666872,73.2230691 113.805439,78.0317634 111.737556,79.1379193 C105.833995,82.2958629 97.4523224,83.1165786 90,82.9871933 C68.4651004,82.61331 51,67.1824189 51,48.2607366 C51,29.3390542 68.4608948,14 90,14 Z M71.5,44 C69.0147186,44 67,46.0147186 67,48.5 C67,50.9852814 69.0147186,53 71.5,53 C73.9852814,53 76,50.9852814 76,48.5 C76,46.0147186 73.9852814,44 71.5,44 Z M89.5,44 C87.0147186,44 85,46.0147186 85,48.5 C85,50.9852814 87.0147186,53 89.5,53 C91.9852814,53 94,50.9852814 94,48.5 C94,46.0147186 91.9852814,44 89.5,44 Z M107.5,44 C105.014719,44 103,46.0147186 103,48.5 C103,50.9852814 105.014719,53 107.5,53 C109.985281,53 112,50.9852814 112,48.5 C112,46.0147186 109.985281,44 107.5,44 Z" id="形状结合" fill="url(#linearGradient-4)" mask="url(#mask-3)"></path>
                </g>
                <g id="编组-21" transform="translate(21.170004, 70.611165)">
                    <ellipse id="Oval" fill="#CFD4E4" filter="url(#filter-5)" transform="translate(58.314579, 69.246826) scale(-1, 1) translate(-58.314579, -69.246826) " cx="58.3145786" cy="69.2468265" rx="44" ry="6"></ellipse>
                    <path d="M62.0459891,36.6956008 C67.6248005,32.6563275 74.0514659,31.0053674 81.3259851,31.7427203 C92.2377639,32.8487496 100.239622,47.5558702 94.0479423,65.157678 C93.1644987,67.4757313 89.5758999,69.2555887 83.2821459,70.4972501 C70.7823268,72.8342993 57.3275727,73.4185616 42.9178835,72.250037 C34.109716,69.332938 35.9882825,63.757409 47.4326354,47.5558702 C49.4786249,44.6594044 54.3497428,41.0393145 62.0459891,36.6956008 Z" id="路径-33" fill="url(#radialGradient-6)" transform="translate(66.800624, 52.203143) rotate(-356.000000) translate(-66.800624, -52.203143) "></path>
                    <path d="M84.2282213,45.9825263 C90.5457195,49.2734325 95.292309,50.9188855 98.4679898,50.9188855 C103.231511,50.9188855 100.600314,67.6511002 96.12131,68.8225091 C91.6423061,69.9939181 81.2814578,73.0145685 73.5331773,73.0145685 C68.367657,73.0145685 71.9326716,64.0038878 84.2282213,45.9825263 Z" id="路径-34" fill="url(#radialGradient-7)" transform="translate(86.120408, 59.498547) rotate(-356.000000) translate(-86.120408, -59.498547) "></path>
                    <path d="M96.8748494,67.5182468 C98.5317036,67.5182468 99.8748494,67.622747 99.8748494,66.5189089 C99.8748494,65.4150707 98.5317036,63.5208952 96.8748494,63.5208952 C95.2179951,63.5208952 93.8748494,65.4150707 93.8748494,66.5189089 C93.8748494,67.622747 95.2179951,67.5182468 96.8748494,67.5182468 Z" id="椭圆形备份-2" fill="#D8DBE4" transform="translate(96.874849, 65.520895) rotate(-59.000000) translate(-96.874849, -65.520895) "></path>
                    <path d="M99.1952162,61.6517701 C100.575928,61.6517701 101.695216,61.8780206 101.695216,61.0574872 C101.695216,60.2369538 100.575928,58.6803558 99.1952162,58.6803558 C98.4452162,58.6803558 97.1952162,60.1660629 96.6952162,61.0574872 C96.6952162,61.8780206 97.8145044,61.6517701 99.1952162,61.6517701 Z" id="椭圆形备份-3" fill="#D8DBE4" transform="translate(99.195216, 60.180356) rotate(-76.000000) translate(-99.195216, -60.180356) "></path>
                    <path d="M83.5433694,62.6053808 C82.3891458,64.4181491 82.1999236,65.8035369 82.9757026,66.7615442 C83.7514816,67.7195515 84.7673911,67.529678 86.0234311,66.1919238 L83.5433694,62.6053808 Z" id="路径-3" fill="#ECEFF4" transform="translate(84.265694, 64.983290) rotate(-141.000000) translate(-84.265694, -64.983290) "></path>
                    <path d="M83.5131767,59.7020832 C82.2204059,60.6583806 81.9002647,61.5394073 82.5527529,62.3451631 C83.2052411,63.150919 84.2721343,63.1766974 85.7534324,62.4224985 L83.5131767,59.7020832 Z" id="路径-3备份" fill="#ECEFF4" transform="translate(83.988947, 61.335768) rotate(-141.000000) translate(-83.988947, -61.335768) "></path>
                    <path d="M82.0404836,66.5988781 C81.4268523,68.4177649 81.6808938,69.7549578 82.8026081,70.6104566 C83.9243224,71.4659554 84.7863625,71.0463203 85.3887282,69.3515513 L82.0404836,66.5988781 Z" id="路径-4" fill="#ECEFF4" transform="translate(83.551867, 68.819903) rotate(-118.000000) translate(-83.551867, -68.819903) "></path>
                    <path d="M59.681303,61.1985446 C74.1038531,57.7495476 81.5683485,56.4108567 82.0747891,57.1824718 C82.8344501,58.3398944 83.9473004,70.1702453 80.1950663,71.0159422 C76.4428321,71.8616391 62.4867239,72.1528283 54.3189709,72.1528283 C48.8738023,72.1528283 50.6612463,68.5014004 59.681303,61.1985446 Z" id="路径-35" fill="url(#linearGradient-8)" transform="translate(67.041956, 64.561850) rotate(-356.000000) translate(-67.041956, -64.561850) "></path>
                    <path d="M68.1839033,59.8343812 C77.0640638,57.86356 80.853378,56.9221264 82.0973145,57.7819063 C83.4051931,58.6858813 83.9698258,70.7696798 80.2175917,71.6153767" id="路径" stroke="#D8DBE4" stroke-width="1.6" stroke-linecap="round" transform="translate(75.635998, 64.539045) rotate(-356.000000) translate(-75.635998, -64.539045) "></path>
                    <g id="编组-25" transform="translate(34.242453, 37.760141) rotate(-356.000000) translate(-34.242453, -37.760141) translate(2.407613, 2.133902)">
                        <path d="M10.3572266,16.1049011 C12.9295441,5.21198849 16.231783,0.389373472 20.2639434,1.63705606 C26.3121839,3.50857995 31.4838706,14.3742065 16.3092146,20.3390973 C13.7434434,20.8608741 11.7594474,19.4494754 10.3572266,16.1049011 Z" id="路径-30备份" fill="url(#linearGradient-9)" transform="translate(18.304439, 10.944721) scale(-1, 1) rotate(-12.000000) translate(-18.304439, -10.944721) "></path>
                        <path d="M34.0273092,10.203972 C46.3065665,10.203972 58.6360079,18.9599781 61.7777023,31.9675942 C64.9193967,44.9752103 68.4192484,67.7546283 34.0273092,70.9754273 C-0.364629966,74.1962263 -4.35046382,48.6083909 3.25527202,31.9675942 C10.8610079,15.3267976 21.7480519,10.203972 34.0273092,10.203972 Z" id="路径-29" fill="url(#radialGradient-10)"></path>
                        <path d="M41.9603541,18.2093273 C45.0497985,5.12655369 49.0159043,-0.665577631 53.8586716,0.832933319 C61.1228226,3.08069974 67.3342013,16.1307018 49.1089023,23.2947467 C46.0273204,23.9214191 43.644471,22.2262793 41.9603541,18.2093273 Z" id="路径-30" fill="url(#linearGradient-11)"></path>
                        <path d="M14.0858601,50.89051 C17.4740409,50.89051 22.9804673,48.1247783 22.9804673,43.4928538 C23.096291,41.1195588 21.9242801,40.5426098 19.1991605,38.2077212 C16.4740409,35.8728326 17.4279408,34.0827952 13.4509908,34.0827952 C9.47404089,34.0827952 7.76455575,40.7686407 8.29628582,44.056445 C8.82801588,47.3442493 10.6976793,50.89051 14.0858601,50.89051 Z" id="路径-31" fill="url(#linearGradient-12)"></path>
                        <path d="M28.1056371,36.7960121 C29.8786479,37.9336531 33.2119813,37.9336531 38.1056371,36.7960121" id="路径-32" stroke="#D8DBE4" stroke-width="2" stroke-linecap="round"></path>
                        <path d="M1.90224327,34.7960121 C2.94498281,36.0804224 4.61164947,36.5559608 6.90224327,36.2226275" id="路径-32备份" stroke="#D8DBE4" stroke-width="2" stroke-linecap="round"></path>
                    </g>
                </g>
                <path d="M69.9650802,37.6162411 L87.3427951,48.8072403 L87.3427951,48.8072403 C88.8904453,49.7684964 88.4109376,52.0946967 86.688663,52.4242369 L69.7926703,54.0820173 L75.279441,57.3427982 C75.7123771,57.6001663 75.8547926,58.1597392 75.5975655,58.5927591 L74.5105258,60.4221657 C74.2532306,60.8551743 73.6936288,60.9976182 73.2606202,60.740323 L62.5914868,54.4006874 L62.5914868,54.4006874 C61.0089462,53.4603364 61.471799,51.0977557 63.2104788,50.7638768 L63.4088767,50.7353031 L80.3012489,49.0847452 L67.8474647,40.9588322 C67.4322781,40.6879289 67.3095337,40.1349827 67.5711009,39.7138519 L68.6965701,37.9018138 C68.9623231,37.4739439 69.5246155,37.3425221 69.9524854,37.6082751 C69.9567053,37.6108961 69.9609037,37.6135515 69.9650802,37.6162411 Z M56.1905795,63.0051932 L66.2238437,67.0648795 L66.2238437,67.0648795 C67.3974947,67.5397653 67.4929361,69.1304168 66.4578987,69.7646892 L66.2941579,69.8523982 L58.8067758,73.3294715 L61.4729414,74.263928 C61.9481932,74.430622 62.1984785,74.9509371 62.0320672,75.4262879 L61.630011,76.573897 C61.4634738,77.0492523 60.9431171,77.2995988 60.4677618,77.1330616 L54.2724682,74.9625867 L54.2724682,74.9625867 C53.0464036,74.5330441 52.9085688,72.8915133 53.9668702,72.2396636 L54.1345999,72.149584 L61.8370263,68.5695286 L55.0503217,65.8232698 C54.5834334,65.6343167 54.3580915,65.1026678 54.5469888,64.6357568 L55.0030883,63.508535 C55.192011,63.0416244 55.7236688,62.8162706 56.1905795,63.0051932 Z" id="形状结合" fill="#0659E6" fill-rule="nonzero"></path>
            </g>
        </g>
    </g>
</svg>