<?xml version="1.0" encoding="UTF-8"?>
<svg width="22px" height="22px" viewBox="0 0 22 22" version="1.1" xmlns="http://www.w3.org/2000/svg" xmlns:xlink="http://www.w3.org/1999/xlink">
    <title>图标/16/联系备份</title>
    <g id="通用" stroke="none" stroke-width="1" fill="none" fill-rule="evenodd">
        <g id="通用-批量监测" transform="translate(-363.000000, -767.000000)" fill="#FFFFFF">
            <g id="编组-3" transform="translate(350.000000, 754.000000)">
                <g id="图标/16/联系备份" transform="translate(13.000000, 13.000000)">
                    <path d="M11,0 C17.0751322,0 22,4.92486775 22,11 C22,17.0751322 17.0751322,22 11,22 C4.92486775,22 0,17.0751322 0,11 C0,4.92486775 4.92486775,0 11,0 Z M15.8020355,7.15233677 C15.6703169,6.49370009 15.0296074,6.06654859 14.3709707,6.19826719 L14.3709707,6.19826719 L8.35516382,7.40134876 C7.87372342,7.49763045 7.49739429,7.87394998 7.40110032,8.35538792 L7.40110032,8.35538792 L6.19797059,14.3706376 C6.16647868,14.5280867 6.16647661,14.6902133 6.1979645,14.8476632 C6.3296831,15.5062999 6.97039265,15.9334514 7.62902933,15.8017328 L7.62902933,15.8017328 L13.6448362,14.5986512 C14.1262766,14.5023696 14.5026057,14.12605 14.5988997,13.6446121 L14.5988997,13.6446121 L15.8020294,7.62936244 C15.8335213,7.47191334 15.8335234,7.30978667 15.8020355,7.15233677 Z M11,9.37853211 C11.8870972,9.37853211 12.6215754,10.1129617 12.6215754,11 C12.6215754,11.8870383 11.8966358,12.6214679 11,12.6214679 C10.1129028,12.6214679 9.37842455,11.8870383 9.37842455,11 C9.37842455,10.1129617 10.1129028,9.37853211 11,9.37853211 Z" id="形状结合"></path>
                </g>
            </g>
        </g>
    </g>
</svg>