<?xml version="1.0" encoding="UTF-8"?>
<svg width="16px" height="16px" viewBox="0 0 16 16" version="1.1" xmlns="http://www.w3.org/2000/svg" xmlns:xlink="http://www.w3.org/1999/xlink">
    <title>通用/图标/删除</title>
    <g id="精准招商" stroke="none" stroke-width="1" fill="none" fill-rule="evenodd">
        <g id="发布-定向发布-选择企业搜索空备份-2" transform="translate(-382.000000, -121.000000)">
            <rect fill="#FFFFFF" x="0" y="0" width="414" height="897"></rect>
            <g id="公开模块标题备份-10" transform="translate(0.000000, 104.000000)" fill="#FFFFFF">
                <rect id="矩形备份-11" x="0" y="0" width="414" height="50"></rect>
            </g>
            <g id="编组" transform="translate(382.000000, 121.000000)">
                <path d="M13.375,4.40000001 L13.375,5.2 L13.375,5.2 L2.375,5.2 L2.375,4.40000001 C2.375,4.1790861 2.5540861,4 2.77500001,4 L12.975,4 C13.1959139,4 13.375,4.1790861 13.375,4.40000001 Z" id="路径" fill="#848C99" fill-rule="nonzero"></path>
                <polyline id="路径" stroke="#848C99" stroke-width="1.2" stroke-linejoin="round" points="12 4.47671615 11.5355697 13.4767162 4.4935601 13.4767162 4 4.47671615"></polyline>
                <path d="M5.52782984,4.5 L5.52782984,2.7 C5.52782984,2.58954305 5.61737289,2.5 5.72782984,2.5 L10.3278298,2.5 C10.4382868,2.5 10.5278298,2.58954305 10.5278298,2.7 L10.5278298,4.5 L10.5278298,4.5" id="路径" stroke="#848C99" stroke-width="1.2"></path>
            </g>
            <g id="编组" transform="translate(382.000000, 121.000000)">
                <path d="M13.375,4.40000001 L13.375,5.2 L13.375,5.2 L2.375,5.2 L2.375,4.40000001 C2.375,4.1790861 2.5540861,4 2.77500001,4 L12.975,4 C13.1959139,4 13.375,4.1790861 13.375,4.40000001 Z" id="路径" fill="#848C99" fill-rule="nonzero"></path>
                <polyline id="路径" stroke="#848C99" stroke-width="1.2" stroke-linejoin="round" points="12 4.47671615 11.5355697 13.4767162 4.4935601 13.4767162 4 4.47671615"></polyline>
                <path d="M5.52782984,4.5 L5.52782984,2.7 C5.52782984,2.58954305 5.61737289,2.5 5.72782984,2.5 L10.3278298,2.5 C10.4382868,2.5 10.5278298,2.58954305 10.5278298,2.7 L10.5278298,4.5 L10.5278298,4.5" id="路径" stroke="#848C99" stroke-width="1.2"></path>
            </g>
        </g>
    </g>
</svg>