<?xml version="1.0" encoding="UTF-8"?>
<svg width="8px" height="11.5px" viewBox="0 0 8 11.5" version="1.1" xmlns="http://www.w3.org/2000/svg" xmlns:xlink="http://www.w3.org/1999/xlink">
    <title>定位</title>
    <g id="精准招商" stroke="none" stroke-width="1" fill="none" fill-rule="evenodd">
        <g id="精准招商-空状态备份" transform="translate(-25.968925, -60.500000)">
            <g id="编组-10" transform="translate(16.000000, 52.000000)">
                <g id="定位" transform="translate(8.000000, 8.000000)">
                    <polygon id="矩形" points="1.00680875e-14 -3.53050922e-14 12 -3.53050922e-14 12 12 1.00680875e-14 12"></polygon>
                    <g id="编组-8" transform="translate(1.968925, 0.500000)">
                        <line x1="4" y1="3" x2="4" y2="11.5" id="路径" stroke="#1F2329" stroke-width="1.5"></line>
                        <path d="M4,1.3 C4.74558441,1.3 5.42058441,1.60220779 5.90918831,2.09081169 C6.39779221,2.57941559 6.7,3.25441559 6.7,4 C6.7,4.74558441 6.39779221,5.42058441 5.90918831,5.90918831 C5.42058441,6.39779221 4.74558441,6.7 4,6.7 C3.25441559,6.7 2.57941559,6.39779221 2.09081169,5.90918831 C1.60220779,5.42058441 1.3,4.74558441 1.3,4 C1.3,3.25441559 1.60220779,2.57941559 2.09081169,2.09081169 C2.57941559,1.60220779 3.25441559,1.3 4,1.3 Z" id="椭圆形" stroke="#0659E6" stroke-width="2.6" fill="#FFFFFF"></path>
                    </g>
                </g>
            </g>
        </g>
    </g>
</svg>