<?xml version="1.0" encoding="UTF-8"?>
<svg width="16px" height="16px" viewBox="0 0 16 16" version="1.1" xmlns="http://www.w3.org/2000/svg" xmlns:xlink="http://www.w3.org/1999/xlink">
    <title>切片</title>
    <g id="联系" stroke="none" stroke-width="1" fill="none" fill-rule="evenodd">
        <g id="通讯录-添加朋友-组织-查看更多组织成员" transform="translate(-138.000000, -326.000000)">
            <g id="编组-6" transform="translate(16.000000, 148.000000)">
                <g id="编组-3" transform="translate(24.000000, 176.000000)">
                    <g id="通用/图标/性别/男备份" transform="translate(98.000000, 2.000000)">
                        <path d="M0,0 L16,0 L16,16 L0,16 Z" id="heart-filled-(Background)"></path>
                        <g id="用户,女,头像" transform="translate(2.000000, 2.000000)" fill-rule="nonzero">
                            <rect id="矩形" fill="#000000" opacity="0" x="0" y="0" width="12" height="12"></rect>
                            <path d="M11.2488281,11.4375 C11.2488281,11.4375 9.75,12 6.0234375,12 C2.296875,12 0.751171875,11.4375 0.751171875,11.4375 C0.751171875,11.4375 0.751171875,9.96445312 1.48945313,9.24375 C1.6359375,9.10078125 1.81171875,8.98710937 2.02265625,8.92148437 C2.08242188,8.90273437 2.1421875,8.88398437 2.20078125,8.86523438 C3.40546875,8.48320312 4.51875,8.1 4.51875,7.71796875 L4.51875,6.98789063 C4.51875,6.96210938 4.49765625,6.94335938 4.47421875,6.94335938 C4.46835938,6.94335938 4.4625,6.94453125 4.45664063,6.946875 C4.38398438,6.97734375 4.2421875,7.0171875 4.00664063,7.0171875 C3.81796875,7.0171875 3.56953125,6.99140625 3.24726563,6.9140625 L2.95429688,6.82148438 L2.25234375,6.6 C2.12695313,6.56015625 2.08007813,6.4078125 2.16210938,6.3046875 C2.41171875,5.99179688 2.82421875,5.34726563 2.82421875,4.50820313 C2.82421875,3.3046875 2.82421875,1.30078125 4.09453125,0.498046875 C4.72617188,0.0984375 5.353125,0 5.82773438,0 C5.8875,0 5.94609375,0.001171875 6.00117188,0.0046875 C6.05390625,0.00234375 6.11015625,0.001171875 6.16757813,0.001171875 C6.64335938,0.001171875 7.27148438,0.0984375 7.90664063,0.49921875 C9.17695313,1.30195312 9.17695313,3.30585938 9.17695313,4.509375 C9.17695313,5.3484375 9.590625,5.99296875 9.8390625,6.30585938 C9.92109375,6.40898437 9.87421875,6.56132812 9.74882813,6.60117188 L9.04570313,6.82265625 L8.75390625,6.9140625 C8.43164063,6.99140625 8.18320313,7.0171875 7.99453125,7.0171875 C7.75898438,7.0171875 7.6171875,6.97617187 7.54570313,6.946875 C7.53984375,6.94453125 7.53398438,6.94335938 7.528125,6.94335938 C7.5046875,6.94335938 7.48359375,6.96210938 7.48359375,6.98789062 L7.48359375,7.71796875 C7.48359375,8.09882812 8.59453125,8.48320312 9.79921875,8.86523437 C9.85898438,8.88398437 9.91757813,8.90273437 9.97734375,8.92148437 C10.1882813,8.98828125 10.3640625,9.10078125 10.5105469,9.24375 C11.2488281,9.96445312 11.2488281,11.4375 11.2488281,11.4375 L11.2488281,11.4375 Z" id="路径" fill="#EA7040"></path>
                        </g>
                    </g>
                </g>
            </g>
        </g>
    </g>
</svg>