<?xml version="1.0" encoding="UTF-8"?>
<svg width="12px" height="12px" viewBox="0 0 12 12" version="1.1" xmlns="http://www.w3.org/2000/svg" xmlns:xlink="http://www.w3.org/1999/xlink">
    <title>切片</title>
    <g id="首页" stroke="none" stroke-width="1" fill="none" fill-rule="evenodd">
        <g id="首页切图" transform="translate(-323.000000, -481.000000)" fill="#0659E6" fill-rule="nonzero">
            <g id="图标/16/关注备份" transform="translate(323.000000, 481.000000)">
                <path d="M8.28977273,0.528409091 L8.09866589,0.533342837 C7.40685783,0.569125209 6.75104042,0.798457257 6.19306603,1.1858431 L6.01704545,1.3155 L6.00565567,1.30641653 C5.36410663,0.80770042 4.57571224,0.528409091 3.74431818,0.528409091 C1.67278684,0.528409091 5.1159077e-13,2.24898984 5.1159077e-13,4.36363636 L0.00185086873,4.48589802 L0.00579545455,4.5555 L5.1159077e-13,4.65116522 L0.00545687527,4.81571982 C0.0668944019,5.76342494 0.640170882,6.95609673 1.37236554,7.6834419 L1.46304545,7.7685 L1.43737991,7.7370656 C1.52967674,7.85339759 1.63590591,7.9775355 1.75525158,8.10902258 L1.99355152,8.36327531 L2.25977374,8.63242735 L2.54289747,8.90618036 L2.83870459,9.18165545 L3.14281866,9.45569793 L3.60628221,9.85810906 L3.91002868,10.1126476 L4.20783236,10.3552078 L4.49373444,10.5810868 L4.76340286,10.7869351 L5.01276461,10.9695428 L5.23830696,11.1259895 C5.60081792,11.3683778 5.79624152,11.4715909 6.02729785,11.4715909 C6.19748081,11.4715909 6.33168315,11.4173881 6.5183008,11.3133078 L6.77022702,11.1588202 L6.82670454,11.1213735 L7.05496193,10.9626148 L7.31454911,10.7717571 L7.59325193,10.5577086 L7.8873179,10.3235662 L8.19243043,10.0727167 L8.50401335,9.80868514 L8.8173677,9.53505584 L9.1277439,9.25542422 L9.43038878,8.97335575 L9.72058586,8.69233916 L9.99370148,8.41571702 L10.1298931,8.27202553 C10.2614404,8.13108285 10.3790632,7.99834402 10.4828368,7.87342536 L10.5530455,7.78575 L10.647926,7.69698188 C11.4332603,6.9180875 12.0340909,5.62504095 12.0340909,4.65116522 L12.0282955,4.56675 L12.0266915,4.60643386 C12.0316184,4.5258223 12.0340909,4.44486239 12.0340909,4.36363636 C12.0340909,2.24898984 10.3613041,0.528409091 8.28977273,0.528409091 Z" id="路径"></path>
            </g>
        </g>
    </g>
</svg>