<?xml version="1.0" encoding="UTF-8"?>
<svg width="15.75px" height="15.75px" viewBox="0 0 15.75 15.75" version="1.1" xmlns="http://www.w3.org/2000/svg" xmlns:xlink="http://www.w3.org/1999/xlink">
    <title>基金备份</title>
    <g id="精准招商" stroke="none" stroke-width="1" fill="none" fill-rule="evenodd">
        <g id="精准招商-空状态备份-16" transform="translate(-104.250000, -325.250000)">
            <g id="编组" transform="translate(16.000000, 223.000000)">
                <g id="基金备份" transform="translate(88.000000, 102.000000)">
                    <rect id="矩形" x="0" y="0" width="16" height="16"></rect>
                    <path d="M12.8101086,9.09375001 C12.9452004,9.09375001 13.0592695,9.19304688 13.0764383,9.32559376 L13.16631,10.0190781 C13.4070119,10.0801458 13.637716,10.1747537 13.8514985,10.3000625 L14.4109299,9.87240625 C14.5178282,9.79070312 14.6694413,9.80028125 14.7649674,9.89478125 L15.1902705,10.3155156 C15.2857966,10.4100156 15.295463,10.56 15.2128726,10.66575 L14.7805883,11.2191719 C14.9072564,11.430653 15.0028917,11.6588735 15.0646239,11.8969844 L15.7656387,11.9858906 C15.8996249,12.0028906 16,12.1157344 16,12.249375 L16,12.844375 C16,12.9780156 15.8996249,13.0908594 15.7656387,13.1078437 L15.0646239,13.19675 C15.0028931,13.4348663 14.9072578,13.6630921 14.7805883,13.8745781 L15.2128884,14.428 C15.2954788,14.53375 15.2857966,14.6837344 15.1902705,14.7782344 L14.7649674,15.1989687 C14.6694413,15.2934687 14.5178282,15.3030312 14.4109299,15.2213281 L13.8514985,14.7936875 C13.6377209,14.9189949 13.4070222,15.0136028 13.1663258,15.0746719 L13.0764541,15.7681563 C13.0592695,15.9007031 12.9452004,16 12.8101086,16 L12.2086476,16 C12.0735558,16 11.9594867,15.9007031 11.9423179,15.7681563 L11.8524462,15.0746719 C11.6117443,15.0136042 11.3810401,14.9189963 11.1672576,14.7936875 L10.6078262,15.2213438 C10.5009279,15.3030469 10.3493149,15.2934688 10.2537887,15.1989687 L9.82848568,14.7782344 C9.73295953,14.6837344 9.72329318,14.53375 9.8058835,14.428 L10.2381678,13.8745781 C10.1114997,13.663097 10.0158645,13.4348765 9.95413228,13.1967656 L9.25311746,13.1078594 C9.11913128,13.0908594 9.01875616,12.9780156 9.01875616,12.844375 L9.01875616,12.249375 C9.01875616,12.1157344 9.11913128,12.0028906 9.25311746,11.9859063 L9.95413228,11.897 C10.0158631,11.6588837 10.1114983,11.4306579 10.2381678,11.2191719 L9.80586771,10.66575 C9.72327737,10.56 9.73295951,10.4100156 9.82848568,10.3155156 L10.2537887,9.89478125 C10.3493149,9.80028125 10.5009279,9.79071874 10.6078262,9.87242188 L11.1672576,10.3000625 C11.3810352,10.1747551 11.6117339,10.0801472 11.8524304,10.0190781 L11.9423021,9.32559376 C11.9594867,9.19304688 12.0735558,9.09375001 12.2086476,9.09375001 L12.8101086,9.09375001 Z M8,0.25 C11.8833779,0.25 15.1527177,3.12260253 15.6772864,6.93465111 C15.698762,7.09071462 15.7229999,7.44583091 15.75,8 L14.25,8 C14.2368613,7.61504331 14.2172912,7.32808873 14.1912899,7.13913626 C13.768547,4.06705775 11.1314787,1.75 8,1.75 C4.54822031,1.75 1.75,4.54822031 1.75,8 C1.75,11.3750735 4.4252368,14.1253119 7.77087313,14.245878 L8,14.25 L8,15.75 C3.71979319,15.75 0.25,12.2802068 0.25,8 C0.25,3.71979319 3.71979319,0.25 8,0.25 Z M12.5093781,11.296875 C11.8115222,11.296875 11.2458045,11.8565156 11.2458045,12.546875 C11.2458045,13.2372344 11.8115222,13.796875 12.5093781,13.796875 C13.2072339,13.796875 13.7729516,13.2372344 13.7729516,12.546875 C13.7729516,11.8565156 13.2072339,11.296875 12.5093781,11.296875 Z M11.9003535,5.32896834 L7.78139306,10.3807031 L5.85292201,8.83024117 L4.55848744,10.3807031 L3.62182235,9.59045186 L5.60396213,7.18511193 L7.49952792,8.64406996 L9.33344531,6.4204177 L8.35040306,5.6319284 L11.9003535,5.32896834 Z" id="形状结合" fill="#3D485C" fill-rule="nonzero"></path>
                </g>
            </g>
        </g>
    </g>
</svg>