<?xml version="1.0" encoding="UTF-8"?>
<svg width="16px" height="16px" viewBox="0 0 16 16" version="1.1" xmlns="http://www.w3.org/2000/svg" xmlns:xlink="http://www.w3.org/1999/xlink">
    <title>投资备份</title>
    <g id="精准招商" stroke="none" stroke-width="1" fill="none" fill-rule="evenodd">
        <g id="精准招商-空状态备份-16" transform="translate(-104.000000, -369.000000)" fill="#BC9E74" fill-rule="nonzero">
            <g id="编组" transform="translate(16.000000, 223.000000)">
                <g id="投资备份" transform="translate(88.000000, 146.000000)">
                    <path d="M13.845736,5.39764511 C14.3389371,6.50064524 14.508168,7.72116488 14.3336726,8.91671975 L12.4667153,8.20010819 L14.4720546,12.7029242 C16.1526359,10.3909815 16.471023,7.3578628 15.307146,4.74741609 C13.5113795,0.711677297 8.78239432,-1.10304552 4.74691899,0.693282122 C4.00290563,1.02365893 3.3137162,1.46570643 2.7031847,2.00413743 L3.39429484,3.55572943 C4.87196963,2.024592 7.01421944,1.32809738 9.10994799,1.69743929 C11.2056765,2.0667812 12.980669,3.45363324 13.845736,5.39764511 Z M10.6029576,13.8450238 C11.3546172,13.5116184 12.034738,13.0360859 12.6058972,12.4445921 L13.2970074,13.9961841 C12.6864141,14.5343222 11.9972292,14.9760972 11.2532731,15.3062396 C7.21779774,17.103367 2.48961247,15.2886442 0.69224615,11.2529054 C-0.471171244,8.64217838 -0.152172233,5.60904129 1.52893738,3.29739737 L3.53347675,7.80021333 L1.66651948,7.08360177 C1.33263881,9.39020985 2.2795573,11.6958932 4.13831129,13.10225 C5.99706528,14.5086068 8.47360603,14.7931559 10.6029576,13.8450238 Z" id="形状"></path>
                    <polygon id="路径" points="6.86904307 5.73835552 3.47508435 9.13106339 4.60613729 10.261966 6.86904307 8.00016076 9.13114898 10.261966 12.5251077 6.86925813 11.3940548 5.73755572 9.13114898 8.00016076"></polygon>
                </g>
            </g>
        </g>
    </g>
</svg>