<?xml version="1.0" encoding="UTF-8"?>
<svg width="12px" height="12px" viewBox="0 0 12 12" version="1.1" xmlns="http://www.w3.org/2000/svg" xmlns:xlink="http://www.w3.org/1999/xlink">
    <title>切片</title>
    <g id="首页" stroke="none" stroke-width="1" fill="none" fill-rule="evenodd">
        <g id="首页切图" transform="translate(-451.000000, -458.000000)">
            <g id="图标/16/联系" transform="translate(451.000000, 458.000000)">
                <circle id="椭圆形" stroke="#0659E6" stroke-width="1.125" cx="6" cy="6" r="5.25"></circle>
                <path d="M8.23496271,4.37230987 C8.25500159,4.47250725 8.25500056,4.57568099 8.2349597,4.67587797 L7.74295562,7.13571832 C7.6816773,7.44208748 7.4421953,7.68156306 7.1358245,7.74283315 L4.67572453,8.23482051 C4.2565921,8.31864144 3.84886784,8.04681775 3.76504691,7.62768532 C3.74500888,7.52748848 3.74501048,7.42431544 3.76505165,7.32411923 L4.2570636,4.86429519 C4.31834262,4.55792944 4.55782151,4.31845634 4.86418875,4.25718473 L7.32428085,3.76518105 C7.7434127,3.6813572 8.15113886,3.95317803 8.23496271,4.37230987 Z M6,5.2261176 C5.57661272,5.2261176 5.22606626,5.5766408 5.22606626,6 C5.22606626,6.4233592 5.57661272,6.7738824 6,6.7738824 C6.42793983,6.7738824 6.77393374,6.4233592 6.77393374,6 C6.77393374,5.5766408 6.42338728,5.2261176 6,5.2261176 Z" id="形状结合" fill="#0659E6"></path>
            </g>
        </g>
    </g>
</svg>