<?xml version="1.0" encoding="UTF-8"?>
<svg width="12px" height="12px" viewBox="0 0 12 12" version="1.1" xmlns="http://www.w3.org/2000/svg" xmlns:xlink="http://www.w3.org/1999/xlink">
    <title>切片</title>
    <g id="首页" stroke="none" stroke-width="1" fill="none" fill-rule="evenodd">
        <g id="首页切图" transform="translate(-387.000000, -458.000000)">
            <g id="图标/16/关注" transform="translate(387.000000, 458.000000)">
                <rect id="矩形" x="0" y="0" width="12" height="12"></rect>
                <path d="M6.01073752,0.76401455 C8.87257668,0.76401455 11.1925557,3.08399357 11.1925557,5.94583273 C11.1925557,7.30924226 10.6659976,8.54966756 9.80514824,9.47484193 L10.1361546,10.2152469 C10.2823757,10.5417282 10.1362459,10.9249292 9.80976451,11.0711503 C9.72648311,11.1084495 9.63626035,11.1277308 9.54500784,11.1277308 L6.01073752,11.1276509 L6.01073752,11.1276509 C3.14889836,11.1276509 0.828919339,8.80767189 0.828919339,5.94583273 C0.828919339,3.08399357 3.14889836,0.76401455 6.01073752,0.76401455 Z" id="形状结合" stroke="#0659E6" stroke-width="1.125" stroke-linejoin="round" transform="translate(6.010738, 5.945873) scale(-1, 1) translate(-6.010738, -5.945873) "></path>
            </g>
        </g>
    </g>
</svg>