<?xml version="1.0" encoding="UTF-8"?>
<svg width="16px" height="16px" viewBox="0 0 16 16" version="1.1" xmlns="http://www.w3.org/2000/svg" xmlns:xlink="http://www.w3.org/1999/xlink">
    <title>切片</title>
    <g id="联系" stroke="none" stroke-width="1" fill="none" fill-rule="evenodd">
        <g id="通讯录-添加朋友-组织-查看更多组织成员" transform="translate(-194.000000, -262.000000)">
            <g id="编组-6" transform="translate(16.000000, 148.000000)">
                <g id="编组" transform="translate(24.000000, 112.000000)">
                    <g id="通用/图标/性别/男" transform="translate(154.000000, 2.000000)">
                        <path d="M0,0 L16,0 L16,16 L0,16 Z" id="heart-filled-(Background)"></path>
                        <path d="M12.99236,11.33828 L10.34396,10.30616 C10.34396,10.30616 9.83888,10.11008 9.64268,9.91724 C9.51656,9.79328 9.52568,9.50084 9.63728,9.12728 C9.74888,8.75372 11.10656,7.2356 11.10656,5.85656 C11.10656,3.7268 9.7064,2 7.97936,2 C6.25244,2 4.8524,3.7268 4.8524,5.85668 C4.8524,7.17752 6.06224,8.75216 6.21152,9.03836 C6.36092,9.32456 6.32456,9.76076 6.2066,9.89288 C6.02948,10.09136 5.38232,10.29032 5.38232,10.29032 L2.9948,11.35436 C2.43704,11.55476 2,12.08084 2,12.67436 L2,12.95588 C2,13.60364 2.52608,14 3.17264,14 L7.17704,14 L8.5496,14 L12.81452,14 C13.4612,14 13.98728,13.60364 13.98728,12.95588 L13.98728,12.67436 C13.98728,12.08072 13.55024,11.53856 12.99236,11.33828 L12.99236,11.33828 Z" id="路径" fill="#0659E6" fill-rule="nonzero"></path>
                    </g>
                </g>
            </g>
        </g>
    </g>
</svg>