<?xml version="1.0" encoding="UTF-8"?>
<svg width="152px" height="152px" viewBox="0 0 152 152" version="1.1" xmlns="http://www.w3.org/2000/svg" xmlns:xlink="http://www.w3.org/1999/xlink">
    <title>暂无搜索结果@3x</title>
    <defs>
        <linearGradient x1="39.5050742%" y1="18.1110988%" x2="52.9962045%" y2="158.612347%" id="linearGradient-1">
            <stop stop-color="#F6F7FA" offset="0%"></stop>
            <stop stop-color="#ECEEF6" offset="39.1872673%"></stop>
            <stop stop-color="#C9CFE0" offset="100%"></stop>
        </linearGradient>
        <circle id="path-2" cx="62" cy="62" r="62"></circle>
        <linearGradient x1="58.8119133%" y1="-17.8521861%" x2="53.4284968%" y2="93.7469894%" id="linearGradient-4">
            <stop stop-color="#EAEDF4" offset="0%"></stop>
            <stop stop-color="#CFD5E6" offset="100%"></stop>
        </linearGradient>
        <linearGradient x1="51.4882196%" y1="-17.8521861%" x2="50%" y2="100%" id="linearGradient-5">
            <stop stop-color="#EAEDF4" offset="0%"></stop>
            <stop stop-color="#D1D6E5" offset="100%"></stop>
        </linearGradient>
        <linearGradient x1="51.0334858%" y1="-17.8521861%" x2="50%" y2="100%" id="linearGradient-6">
            <stop stop-color="#EAEDF4" offset="0%"></stop>
            <stop stop-color="#D1D6E5" offset="100%"></stop>
        </linearGradient>
        <linearGradient x1="56.3474392%" y1="-17.8521861%" x2="50%" y2="100%" id="linearGradient-7">
            <stop stop-color="#EAEDF4" offset="0%"></stop>
            <stop stop-color="#D1D6E5" offset="100%"></stop>
        </linearGradient>
        <linearGradient x1="56.8920264%" y1="202.595186%" x2="36.2448034%" y2="63.5845368%" id="linearGradient-8">
            <stop stop-color="#EAEDF4" offset="0%"></stop>
            <stop stop-color="#D1D6E5" offset="100%"></stop>
        </linearGradient>
        <linearGradient x1="50.49957%" y1="202.595186%" x2="49.0029517%" y2="63.5845368%" id="linearGradient-9">
            <stop stop-color="#EAEDF4" offset="0%"></stop>
            <stop stop-color="#D1D6E5" offset="100%"></stop>
        </linearGradient>
        <filter x="-69.0%" y="-250.0%" width="238.0%" height="600.0%" filterUnits="objectBoundingBox" id="filter-10">
            <feGaussianBlur stdDeviation="10 0" in="SourceGraphic"></feGaussianBlur>
        </filter>
        <linearGradient x1="67.7198287%" y1="70.4353374%" x2="67.7198287%" y2="100%" id="linearGradient-11">
            <stop stop-color="#FFFFFF" offset="0%"></stop>
            <stop stop-color="#E6E9F2" offset="100%"></stop>
        </linearGradient>
        <linearGradient x1="50%" y1="0%" x2="50%" y2="100%" id="linearGradient-12">
            <stop stop-color="#FEFEFE" offset="0%"></stop>
            <stop stop-color="#EDEFF8" offset="100%"></stop>
        </linearGradient>
        <linearGradient x1="40.8211501%" y1="25.6060035%" x2="40.8211501%" y2="127.196212%" id="linearGradient-13">
            <stop stop-color="#FFFFFF" offset="0%"></stop>
            <stop stop-color="#F3F4F8" offset="100%"></stop>
        </linearGradient>
        <radialGradient cx="59.386106%" cy="0%" fx="59.386106%" fy="0%" r="110.26778%" gradientTransform="translate(0.593861,0.000000),scale(1.000000,0.993663),rotate(60.800084),translate(-0.593861,-0.000000)" id="radialGradient-14">
            <stop stop-color="#FFFFFF" offset="0%"></stop>
            <stop stop-color="#FEFEFF" offset="53.118845%"></stop>
            <stop stop-color="#F3F4F8" offset="100%"></stop>
        </radialGradient>
        <linearGradient x1="50%" y1="200.955815%" x2="50%" y2="-31.5967774%" id="linearGradient-15">
            <stop stop-color="#0659E6" stop-opacity="0.6" offset="0%"></stop>
            <stop stop-color="#0659E6" stop-opacity="0" offset="100%"></stop>
        </linearGradient>
    </defs>
    <g id="精准拓客" stroke="none" stroke-width="1" fill="none" fill-rule="evenodd">
        <g id="精准拓客-通用搜索（二次搜索）" transform="translate(-131.000000, -235.000000)">
            <g id="编组-20" transform="translate(131.000000, 235.000000)">
                <g id="矩形" transform="translate(14.000000, 13.857991)">
                    <mask id="mask-3" fill="white">
                        <use xlink:href="#path-2"></use>
                    </mask>
                    <use id="蒙版" fill="url(#linearGradient-1)" xlink:href="#path-2"></use>
                    <rect fill="url(#linearGradient-4)" mask="url(#mask-3)" x="-11" y="10" width="73" height="114" rx="6"></rect>
                    <path d="M107,11 L125,11 C128.313708,11 131,13.6862915 131,17 L131,119 C131,122.313708 128.313708,125 125,125 L107,125 C103.686292,125 101,122.313708 101,119 L101,17 C101,13.6862915 103.686292,11 107,11 Z" id="矩形备份-2" fill="url(#linearGradient-5)" opacity="0.400000006" mask="url(#mask-3)"></path>
                    <path d="M78,16 L91,16 C94.3137085,16 97,18.6862915 97,22 L97,124 C97,127.313708 94.3137085,130 91,130 L78,130 C74.6862915,130 72,127.313708 72,124 L72,22 C72,18.6862915 74.6862915,16 78,16 Z" id="矩形备份-4" fill="url(#linearGradient-6)" opacity="0.300000012" mask="url(#mask-3)"></path>
                    <path d="M97,48 L135,48 C138.313708,48 141,50.6862915 141,54 L141,134 C141,137.313708 138.313708,140 135,140 L97,140 C93.6862915,140 91,137.313708 91,134 L91,54 C91,50.6862915 93.6862915,48 97,48 Z" id="矩形备份-2" fill="url(#linearGradient-7)" mask="url(#mask-3)"></path>
                    <path d="M103,69 L113,69 C114.104569,69 115,69.8954305 115,71 L115,88 C115,89.1045695 114.104569,90 113,90 L103,90 C101.895431,90 101,89.1045695 101,88 L101,71 C101,69.8954305 101.895431,69 103,69 Z" id="矩形备份-2" fill="url(#linearGradient-8)" mask="url(#mask-3)"></path>
                    <rect id="矩形备份" fill="url(#linearGradient-9)" mask="url(#mask-3)" x="11" y="37" width="14" height="78" rx="2"></rect>
                    <rect id="矩形备份-3" fill="url(#linearGradient-9)" mask="url(#mask-3)" x="32" y="37" width="14" height="78" rx="2"></rect>
                </g>
                <g id="编组-15" transform="translate(38.641509, 34.857991)">
                    <ellipse id="Oval" fill="#CFD4E4" filter="url(#filter-10)" transform="translate(32.100782, 106.000000) scale(-1, 1) translate(-32.100782, -106.000000) " cx="32.1007818" cy="106" rx="21.7422912" ry="6"></ellipse>
                    <g id="编组-9" transform="translate(55.358491, 33.000000)">
                        <path d="M17.728048,0 C27.5189786,0 35.456096,7.93711746 35.456096,17.728048 C35.456096,27.5189786 27.5189786,35.456096 17.728048,35.456096 C16.5634181,35.456096 15.4250179,35.3437932 14.3230858,35.1294259 L9.86669121,46.7179582 C9.47017387,47.7489032 8.31298693,48.2632086 7.28204184,47.8666912 C6.30018938,47.4890556 5.78694442,46.4214703 6.08281696,45.4300827 L6.13330879,45.2820418 L10.5031381,33.9218943 C4.31342182,31.1561508 0,24.9458262 0,17.728048 C0,7.93711746 7.93711746,0 17.728048,0 Z M17.728048,4 C10.1462565,4 4,10.1462565 4,17.728048 C4,25.3098396 10.1462565,31.456096 17.728048,31.456096 C25.3098396,31.456096 31.456096,25.3098396 31.456096,17.728048 C31.456096,10.1462565 25.3098396,4 17.728048,4 Z" id="形状结合" fill="#0659E6" fill-rule="nonzero"></path>
                        <path d="M20.5489713,9.78648743 C21.3325688,10.2920451 21.9078404,10.7090212 22.2747862,11.0374158 M24.997092,15.2180033 C25.5913619,17.2101995 25.5007966,19.5064967 24.7253961,22.1068948" id="形状" stroke="#FFFFFF" stroke-width="4" stroke-linecap="round"></path>
                    </g>
                    <g id="编组-11">
                        <g id="编组-8备份-5">
                            <g id="编组-2" transform="translate(0.660377, 86.507895)" fill="#ECEFF4">
                                <path d="M0.732425762,0 C-0.12207096,1.1431743 -0.228883051,2.09581955 0.411989491,2.85793575 C1.05286203,3.62005195 2.01616113,3.4038544 3.30188679,2.20934311 L0.732425762,0 Z" id="路径-3"></path>
                                <path d="M2.59515162,1.98192471 C1.82960371,3.082994 1.77990875,4.00055174 2.44606674,4.73459793 C3.11222474,5.46864412 4.27800124,5.46864412 5.94339623,4.73459793 L2.59515162,1.98192471 Z" id="路径-4"></path>
                            </g>
                            <g id="编组-2备份" transform="translate(66.343511, 74.791007) scale(-1, 1) translate(-66.343511, -74.791007) translate(63.738270, 70.382742)" fill="#DFE4EC">
                                <path d="M2.02596456,0.614169674 C1.17146784,1.75734397 1.06465575,2.70998922 1.70552829,3.47210542 C2.34640083,4.23422162 3.30969993,4.01802407 4.59542559,2.82351278 L2.02596456,0.614169674 Z" id="路径-3" transform="translate(2.944482, 2.265774) rotate(59.000000) translate(-2.944482, -2.265774) "></path>
                                <path d="M1.0689468,4.61612494 C0.303398888,5.71719422 0.253703929,6.63475196 0.919861925,7.36879815 C1.58601992,8.10284434 2.75179642,8.10284434 4.41719141,7.36879815 L1.0689468,4.61612494 Z" id="路径-4" transform="translate(2.436059, 6.267729) rotate(59.000000) translate(-2.436059, -6.267729) "></path>
                            </g>
                            <g id="形状结合备份-2" transform="translate(0.660377, 63.385440)">
                                <path d="M31.7211633,0 L31.7213988,2.14809186 C39.6005068,4.21708134 44.5139817,5.83348474 46.4618233,6.99730205 C49.6633198,8.91016649 54.1951797,7.823965 57.8209181,6.92203675 L58.4164343,6.77396745 C60.7618713,6.1928819 62.6493659,5.77229653 63.4162557,6.45542294 C65.3973878,8.22016616 66.4925843,16.2010405 64.9157652,18.7408331 C61.7545201,21.3075936 50.6712619,22.1428541 50.4618233,23.122455 C50.0735202,24.5723064 50.224235,27.4533717 50.3544608,30.3792191 L50.3906273,31.2151964 C50.4425908,32.4673973 50.4810038,33.703571 50.4618233,34.8145815 C50.3950191,38.6841561 50.6267976,42.2147824 48.1521833,42.2147824 C46.8983787,42.2147824 44.4567593,42.268602 41.9253938,42.279366 L41.2336213,42.2811613 C37.6564919,42.2841697 34.0993736,42.184203 33.634446,41.7102232 C33.0845317,41.149602 32.6446003,40.2105826 32.3146517,38.8931651 C32.1170159,38.9183505 31.91938,38.9407074 31.7217441,38.9602356 L31.7211633,39.0613512 C31.3798831,39.0613512 31.038603,39.0529167 30.6973228,39.0360476 C30.3569569,39.0529331 30.01601,39.0613512 29.6750631,39.0613512 L29.6754821,38.9603344 C29.477513,38.9407828 29.2795438,38.918393 29.0815747,38.8931651 C28.7516261,40.2105826 28.3116947,41.149602 27.7617804,41.7102232 C27.2968528,42.184203 23.7397345,42.2841697 20.1626051,42.2811613 L19.4708326,42.279366 C16.9394671,42.268602 14.4978477,42.2147824 13.2440431,42.2147824 C10.7694288,42.2147824 11.0012073,38.6841561 10.9344031,34.8145815 C10.9297533,34.5452456 10.9265045,34.2735444 10.9242258,34.0010526 L10.9208342,33.4554812 C10.9196574,33.182635 10.9191636,32.9100478 10.9189217,32.6392943 L10.9182766,31.5697925 C10.9146929,28.7637731 10.8744124,26.4052623 10.2745059,26.4052623 C9.28466021,26.4052623 9.28466021,27.9189397 8.29481449,28.4234989 C7.30496876,28.928058 1.86081729,25.9007031 0.0461001279,22.8733482 C-0.603055464,21.7904112 5.65522589,13.4549107 15.5536831,6.39108259 C17.5789803,4.94577135 22.9681404,2.81541049 31.7211633,0 L31.7211633,0 Z" id="形状结合备份" fill="url(#linearGradient-11)"></path>
                                <path d="M13.6981132,31.8239617 C16.3403684,35.4009072 23.0249864,38.9778527 28.6981132,38.9778527 C34.9604557,38.9778527 39.7498139,36.6145597 43.7469159,34.0036319" id="路径" stroke="#D8DBE4" stroke-width="1.6" fill="url(#linearGradient-12)" stroke-linecap="round" stroke-linejoin="round"></path>
                                <path d="M50.4618233,23.122455 C49.5231862,20.7891217 48.1898529,18.4557883 46.4618233,16.122455" id="路径-6" stroke="#D8DBE4" stroke-width="1.6" stroke-linecap="round"></path>
                                <path d="M16.0683327,12.6145597 C12.804279,16.6350392 10.804279,21.6350392 10.0683327,27.6145597" id="路径-6备份" stroke="#D8DBE4" stroke-width="1.6" stroke-linecap="round"></path>
                            </g>
                            <g id="编组-8">
                                <path d="M51.8679245,16.1205912 C53.6938204,5.96910623 56.5937726,0.617508181 60.5677812,0.0657970423 C66.5287941,-0.761769666 72.9731324,6.35530403 69.2676379,13.6378911 C67.9110919,16.3039762 64.3683453,19.0698824 58.6393979,21.9356097 C55.5035864,23.5042016 53.2464287,21.5658621 51.8679245,16.1205912 Z" id="路径" fill="url(#linearGradient-13)"></path>
                                <path d="M0.358490566,16.1205912 C2.18438641,5.96910623 5.08433863,0.617508181 9.05834724,0.0657970423 C15.0193601,-0.761769666 21.4636984,6.35530403 17.7582039,13.6378911 C16.401658,16.3039762 12.8589113,19.0698824 7.1299639,21.9356097 C3.99415247,23.5042016 1.73699469,21.5658621 0.358490566,16.1205912 Z" id="路径备份" fill="url(#linearGradient-13)" transform="translate(9.603774, 11.230907) scale(-1, 1) translate(-9.603774, -11.230907) "></path>
                                <path d="M33.3227419,72.6344223 C60.0965184,72.6344223 65.6454839,61.58261 65.6454839,42.24491 C65.6454839,22.90721 51.4122211,6.57026514 32.3584906,6.57026514 C13.3047601,6.57026514 0,22.90721 0,42.24491 C0,61.58261 6.54896547,72.6344223 33.3227419,72.6344223 Z" id="椭圆形" fill="url(#radialGradient-14)"></path>
                            </g>
                        </g>
                        <path d="M17.0007457,48.0366984 C20.1168772,48.0366984 22.6430009,45.5105747 22.6430009,42.3944433 C22.6430009,40.4696843 21.0285117,37.3644496 17.7995334,33.078739 L17.7994671,33.0787889 C17.4671568,32.6376673 16.8401663,32.5494583 16.3990447,32.8817686 C16.3244989,32.9379262 16.2581819,33.0042432 16.2020243,33.0787889 C12.9729797,37.3644496 11.3584906,40.4696843 11.3584906,42.3944433 C11.3584906,45.5105747 13.8846142,48.0366984 17.0007457,48.0366984 Z" id="椭圆形" fill="url(#linearGradient-15)"></path>
                    </g>
                </g>
            </g>
        </g>
    </g>
</svg>