<?xml version="1.0" encoding="UTF-8"?>
<svg width="12px" height="12px" viewBox="0 0 12 12" version="1.1" xmlns="http://www.w3.org/2000/svg" xmlns:xlink="http://www.w3.org/1999/xlink">
    <title>切片</title>
    <g id="首页" stroke="none" stroke-width="1" fill="none" fill-rule="evenodd" stroke-linejoin="round">
        <g id="首页切图" transform="translate(-323.000000, -458.000000)" stroke="#0659E6" stroke-width="1.125">
            <g id="图标/16/关注备份" transform="translate(323.000000, 458.000000)">
                <path d="M8.27272727,1.09090909 C10.0299969,1.09090909 11.4545455,2.556159 11.4545455,4.36363636 C11.4545455,4.43366589 11.452407,4.50318169 11.4481937,4.57211844 L11.4545455,4.65116522 C11.4545455,5.51266186 10.8574482,6.74641816 10.1234752,7.40252339 C9.9740864,7.59172641 9.78730326,7.80111556 9.57623404,8.02066198 L9.31213259,8.28835132 L9.31213259,8.28835132 L9.02975007,8.56194055 L9.02975007,8.56194055 L8.73412004,8.83757861 L8.73412004,8.83757861 L8.43027606,9.1114144 L8.43027606,9.1114144 L8.12325169,9.37959684 L8.12325169,9.37959684 L7.81808049,9.63827486 L7.81808049,9.63827486 L7.51979603,9.88359736 L7.51979603,9.88359736 L7.23343187,10.1117133 L7.23343187,10.1117133 L6.96402157,10.3187715 L6.96402157,10.3187715 L6.71659868,10.500921 L6.71659868,10.500921 L6.49619678,10.6543107 C6.46199452,10.6772651 6.42912786,10.6988606 6.39770168,10.7190171 L6.22726918,10.8220463 C6.12628986,10.8783644 6.05171379,10.9090909 6.0102524,10.9090909 C5.94099326,10.9090909 5.77337973,10.8185315 5.54154143,10.6635752 L5.3278904,10.5155951 L5.3278904,10.5155951 L5.08755851,10.3397348 L5.08755851,10.3397348 L4.8253219,10.1396558 L4.8253219,10.1396558 L4.54595675,9.91901904 L4.54595675,9.91901904 L4.2542392,9.68148593 L4.2542392,9.68148593 L3.95494543,9.43071765 C3.90469712,9.3880234 3.85433215,9.34493025 3.80395001,9.30151445 L3.50224718,9.03775823 L3.50224718,9.03775823 L3.20490853,8.76991991 L3.20490853,8.76991991 L2.9167102,8.50166074 L2.9167102,8.50166074 L2.64242836,8.23664194 L2.64242836,8.23664194 L2.38683916,7.97852474 L2.38683916,7.97852474 L2.15471877,7.73097038 C2.04532181,7.61044411 1.9465167,7.49525187 1.86099004,7.3874531 C1.13966809,6.74265058 0.545454545,5.51058904 0.545454545,4.65116522 C0.545454545,4.62541428 0.547596085,4.60002412 0.551819155,4.57499476 C0.547655861,4.50521124 0.545454545,4.43468822 0.545454545,4.36363636 C0.545454545,2.556159 1.97000307,1.09090909 3.72727273,1.09090909 C4.61791872,1.09090909 5.42309469,1.46730519 6.00064828,2.07388353 C6.57690531,1.46730519 7.38208128,1.09090909 8.27272727,1.09090909 Z" id="路径"></path>
            </g>
        </g>
    </g>
</svg>