<?xml version="1.0" encoding="UTF-8"?>
<svg width="382px" height="50px" viewBox="0 0 382 50" version="1.1" xmlns="http://www.w3.org/2000/svg" xmlns:xlink="http://www.w3.org/1999/xlink">
    <title>编组</title>
    <defs>
        <linearGradient x1="52.2517179%" y1="-2.44249065e-13%" x2="52.2517179%" y2="100%" id="linearGradient-1">
            <stop stop-color="#B0B7F9" stop-opacity="0.3" offset="0%"></stop>
            <stop stop-color="#FFFFFF" stop-opacity="0" offset="100%"></stop>
        </linearGradient>
        <path d="M12,0 L370,0 C376.627417,-1.21743675e-15 382,5.372583 382,12 L382,50 L382,50 L0,50 L0,12 C-8.11624501e-16,5.372583 5.372583,1.21743675e-15 12,0 Z" id="path-2"></path>
        <filter x="-0.7%" y="-5.0%" width="101.3%" height="110.0%" filterUnits="objectBoundingBox" id="filter-3">
            <feGaussianBlur stdDeviation="1.5" in="SourceAlpha" result="shadowBlurInner1"></feGaussianBlur>
            <feOffset dx="0" dy="2" in="shadowBlurInner1" result="shadowOffsetInner1"></feOffset>
            <feComposite in="shadowOffsetInner1" in2="SourceAlpha" operator="arithmetic" k2="-1" k3="1" result="shadowInnerInner1"></feComposite>
            <feColorMatrix values="0 0 0 0 1   0 0 0 0 0.849046842   0 0 0 0 0.785327744  0 0 0 0.174879808 0" type="matrix" in="shadowInnerInner1"></feColorMatrix>
        </filter>
        <linearGradient x1="58.3441267%" y1="52.4678264%" x2="11.871077%" y2="31.6895128%" id="linearGradient-4">
            <stop stop-color="#FFFFFF" stop-opacity="0" offset="0%"></stop>
            <stop stop-color="#FFFFFF" offset="100%"></stop>
        </linearGradient>
        <linearGradient x1="42.9792839%" y1="51.7531764%" x2="19.7783588%" y2="20.7103058%" id="linearGradient-5">
            <stop stop-color="#FFFFFF" stop-opacity="0" offset="0%"></stop>
            <stop stop-color="#FFFFFF" offset="100%"></stop>
        </linearGradient>
        <linearGradient x1="50%" y1="100%" x2="64.4033438%" y2="24.4554544%" id="linearGradient-6">
            <stop stop-color="#FFA64D" offset="0%"></stop>
            <stop stop-color="#FF1920" offset="100%"></stop>
        </linearGradient>
        <linearGradient x1="88.28125%" y1="34.0155631%" x2="50%" y2="159.594455%" id="linearGradient-7">
            <stop stop-color="#FE474C" offset="0%"></stop>
            <stop stop-color="#FED8B7" offset="100%"></stop>
        </linearGradient>
        <path d="M7.60993201,14.1251443 C9.04062584,15.5849572 10.7836008,15.5849572 11.5351323,15.2514983 C13.6080475,14.0056926 15,12.0404116 15,9.39917901 C15,7.86411891 14.3484409,6.28484697 13.3864208,4.86749807 C12.5889963,6.25110137 11.383273,6.44609529 11.1769446,4.52937072 C10.8856329,1.82317804 8.60771804,0.2857439 7.39504149,0 C7.10097613,3.31825293 1.01758056,4.80947245 1,9.39917901 C1,12.897844 3.44239475,15.3650012 6.67464965,16 C5.72985153,14.8915523 6.17923818,12.6653314 7.60993201,14.1251443 Z" id="path-8"></path>
        <linearGradient x1="9.29020978%" y1="43.2955468%" x2="107.605049%" y2="52.815283%" id="linearGradient-9">
            <stop stop-color="#C9A0EA" offset="0%"></stop>
            <stop stop-color="#5761E7" offset="100%"></stop>
        </linearGradient>
    </defs>
    <g id="通用" stroke="none" stroke-width="1" fill="none" fill-rule="evenodd">
        <g id="通用搜索（历史）" transform="translate(-16.000000, -286.000000)">
            <g id="编组" transform="translate(16.000000, 286.000000)">
                <g id="编组-2">
                    <g id="矩形">
                        <use fill="url(#linearGradient-1)" fill-rule="evenodd" xlink:href="#path-2"></use>
                        <use fill="black" fill-opacity="1" filter="url(#filter-3)" xlink:href="#path-2"></use>
                    </g>
                    <polygon id="路径-12" fill="url(#linearGradient-4)" points="239.253268 6.73209568e-14 221 36.7097178 277.501325 36.7097178 295.754593 6.73209568e-14"></polygon>
                    <polygon id="路径-12备份" fill="url(#linearGradient-5)" opacity="0.600000024" points="280.253268 6.73209568e-14 262 36.7097178 318.501325 36.7097178 336.754593 6.73209568e-14"></polygon>
                </g>
                <g id="通用/热" transform="translate(16.000000, 17.000000)">
                    <rect id="矩形" x="0" y="0" width="16" height="16"></rect>
                    <g id="椭圆形">
                        <use fill="url(#linearGradient-6)" xlink:href="#path-8"></use>
                        <use fill="url(#linearGradient-7)" xlink:href="#path-8"></use>
                    </g>
                </g>
                <path d="M51.1548387,21.2307692 L48.5806452,21.2307692 L48.5806452,21.9076923 C48.5806452,22.4205128 48.5605735,22.8666667 48.5204301,23.2461538 L50.3870968,23.9230769 L50.3870968,25.9692308 L48.1591398,25.1692308 C47.8681004,26.174359 47.4215054,27.1897436 46.8193548,28.2153846 L44.4860215,28.2153846 C45.3892473,27.0461538 46.0215054,25.8153846 46.3827957,24.5230769 L45.6451613,24.2615385 L45.6451613,22.2153846 L46.6989247,22.6 C46.7089606,22.4461538 46.7139785,22.2153846 46.7139785,21.9076923 L46.7139785,21.2307692 L45.4344086,21.2307692 L45.4344086,19.3076923 L46.7139785,19.3076923 L46.7139785,18 L48.5806452,18 L48.5806452,19.3076923 L53.0215054,19.3076923 L53.0215054,26.2615385 L54,26.2615385 L54,28.2153846 L51.1548387,28.2153846 L51.1548387,21.2307692 Z M41.2043011,28.8615385 L43.3569892,28.8615385 L42.1526882,32 L40,32 L41.2043011,28.8615385 Z M40.1505376,23 L41.716129,22.7076923 L41.716129,21.2307692 L40.3010753,21.2307692 L40.3010753,19.3230769 L41.716129,19.3230769 L41.716129,18.0615385 L43.6430108,18.0615385 L43.6430108,19.3230769 L44.8774194,19.3230769 L44.8774194,21.2307692 L43.6430108,21.2307692 L43.6430108,22.3538462 L45.027957,22.0923077 L45.027957,24.0615385 L43.6430108,24.3076923 L43.6430108,28.2153846 L40.5569892,28.2153846 L40.5569892,26.2923077 L41.716129,26.2923077 L41.716129,24.6615385 L40.1505376,24.9384615 L40.1505376,23 Z M44.5462366,28.8615385 L46.5483871,28.8615385 L46.0064516,32 L44.0043011,32 L44.5462366,28.8615385 Z M49.4236559,28.8615385 L49.9655914,32 L47.9634409,32 L47.4215054,28.8615385 L49.4236559,28.8615385 Z M52.7655914,28.8615385 L53.9698925,32 L51.8172043,32 L50.6129032,28.8615385 L52.7655914,28.8615385 Z M60.0538793,21.6826087 L60.0538793,18 L62.0452586,18 L62.0452586,18.8826087 L68.1702586,18.8826087 L68.1702586,20.7391304 L62.0452586,20.7391304 L62.0452586,21.6826087 L67.6271552,21.6826087 L67.6271552,27.9369565 L56.3728448,27.9369565 L56.3728448,21.6826087 L60.0538793,21.6826087 Z M56.2068966,28.5304348 L58.3642241,28.5304348 L57.1573276,32 L55,32 L56.2068966,28.5304348 Z M65.6659483,26.126087 L65.6659483,23.6 L58.3340517,23.6 L58.3340517,26.126087 L65.6659483,26.126087 Z M59.5560345,28.5304348 L61.5625,28.5304348 L61.0193966,32 L59.012931,32 L59.5560345,28.5304348 Z M64.4439655,28.5304348 L64.987069,32 L62.9806034,32 L62.4375,28.5304348 L64.4439655,28.5304348 Z M67.7931034,28.5304348 L69,32 L66.8426724,32 L65.6357759,28.5304348 L67.7931034,28.5304348 Z M71.323913,28.4547414 C70.9485507,28.6458333 70.5072464,28.8318966 70,29.012931 L70,27.0517241 C70.984058,26.6896552 71.7144928,26.1767241 72.1913043,25.512931 L70.1521739,25.512931 L70.1521739,24.0797414 L73.9413043,24.0797414 L73.9413043,23.612069 L71.0652174,23.612069 L71.0652174,22.375 L73.9413043,22.375 L73.9413043,21.8922414 L71.0652174,21.8922414 L71.0652174,20.8965517 L70.2891304,20.8965517 L70.2891304,18.6487069 L76.0108696,18.6487069 L76.0108696,18 L77.9891304,18 L77.9891304,18.6487069 L83.7108696,18.6487069 L83.7108696,20.8965517 L82.9347826,20.8965517 L82.9347826,21.8922414 L80.0586957,21.8922414 L80.0586957,22.375 L82.9347826,22.375 L82.9347826,23.612069 L80.0586957,23.612069 L80.0586957,24.0797414 L83.8478261,24.0797414 L83.8478261,25.512931 L81.8086957,25.512931 C82.2855072,26.1767241 83.015942,26.6896552 84,27.0517241 L84,29.012931 C83.4927536,28.8318966 83.0514493,28.6458333 82.676087,28.4547414 L82.676087,29.5107759 L80.6978261,29.5107759 L80.6978261,27.6099138 L73.3021739,27.6099138 L73.3021739,29.5862069 L71.323913,29.5862069 L71.323913,28.4547414 Z M70.1521739,30.2047414 C73.3884058,30.0840517 75.4427536,29.2895115 76.3152174,27.8211207 L78.5217391,27.8211207 C78.3797101,28.1630747 78.1717391,28.5201149 77.8978261,28.8922414 L83.8478261,30.325431 L83.8478261,32 L76.4826087,30.2198276 C74.9507246,31.2557471 72.8405797,31.8340517 70.1521739,31.9547414 L70.1521739,30.2047414 Z M73.9413043,20.6551724 L73.9413043,20.0969828 L72.2369565,20.0969828 L72.2369565,20.6551724 L73.9413043,20.6551724 Z M80.0891304,26.0862069 C79.9673913,25.8850575 79.865942,25.6939655 79.7847826,25.512931 L74.2152174,25.512931 C74.134058,25.6939655 74.0326087,25.8850575 73.9108696,26.0862069 L80.0891304,26.0862069 Z M78.1108696,24.0797414 L78.1108696,23.612069 L75.8891304,23.612069 L75.8891304,24.0797414 L78.1108696,24.0797414 Z M78.1108696,22.375 L78.1108696,21.8922414 L75.8891304,21.8922414 L75.8891304,22.375 L78.1108696,22.375 Z M78.1108696,20.6551724 L78.1108696,20.0969828 L75.8891304,20.0969828 L75.8891304,20.6551724 L78.1108696,20.6551724 Z M81.7630435,20.6551724 L81.7630435,20.0969828 L80.0586957,20.0969828 L80.0586957,20.6551724 L81.7630435,20.6551724 Z M98.4580645,29.1755725 L89.6516129,29.1755725 L89.6516129,21.1908397 L92.9634409,21.1908397 L93.083871,20.4274809 L89.2301075,20.4274809 L89.2301075,18.8091603 L90.916129,18.8091603 L90.6301075,18 L92.4215054,18 L92.7075269,18.8091603 L95.4172043,18.8091603 L95.7032258,18 L97.4946237,18 L97.2086022,18.8091603 L98.8946237,18.8091603 L98.8946237,20.4274809 L95.0258065,20.4274809 L94.9053763,21.1908397 L98.4731183,21.1908397 L98.4580645,29.1755725 Z M85,22.610687 L88.7333333,22.610687 C88.7333333,23.9236641 88.688172,25.0992366 88.5978495,26.1374046 C88.5075269,27.1755725 88.3519713,28.2086514 88.1311828,29.2366412 C88.5827957,29.4910941 89.0820789,29.6717557 89.6290323,29.778626 C90.1759857,29.8854962 90.8408602,29.9389313 91.6236559,29.9389313 L99,29.9389313 L99,31.8473282 L91.6236559,31.8473282 C90.7003584,31.8473282 89.9326165,31.7938931 89.3204301,31.6870229 C88.7082437,31.5801527 88.1562724,31.3994911 87.6645161,31.1450382 C87.5942652,31.389313 87.544086,31.5470738 87.5139785,31.6183206 C87.4637993,31.8117048 87.4286738,31.9389313 87.4086022,32 L85.3311828,32 C85.8028674,30.6666667 86.1491039,29.4300254 86.3698925,28.2900763 C86.590681,27.1501272 86.7261649,25.9185751 86.7763441,24.5954198 L85,24.5954198 L85,22.610687 Z M87.6494624,18.259542 L88.688172,21.5725191 L86.655914,21.5725191 L85.6172043,18.259542 L87.6494624,18.259542 Z M96.5763441,27.6946565 L96.5763441,26.9618321 L91.5483871,26.9618321 L91.5483871,27.6946565 L96.5763441,27.6946565 Z M96.5763441,25.5572519 L96.5763441,24.8244275 L91.5634409,24.8244275 L91.5483871,25.5572519 L96.5763441,25.5572519 Z M96.5763441,23.4198473 L96.5763441,22.6870229 L91.5634409,22.6870229 L91.5634409,23.4198473 L96.5763441,23.4198473 Z" id="形状结合" fill="url(#linearGradient-9)" fill-rule="nonzero"></path>
                <g id="热点赛道" transform="translate(40.000000, 18.000000)"></g>
            </g>
        </g>
    </g>
</svg>