<?xml version="1.0" encoding="UTF-8"?>
<svg width="382px" height="50px" viewBox="0 0 382 50" version="1.1" xmlns="http://www.w3.org/2000/svg" xmlns:xlink="http://www.w3.org/1999/xlink">
    <title>编组</title>
    <defs>
        <linearGradient x1="52.2517179%" y1="2.90045765e-13%" x2="52.2517179%" y2="100%" id="linearGradient-1">
            <stop stop-color="#F9C4B0" stop-opacity="0.3" offset="0%"></stop>
            <stop stop-color="#FFFFFF" stop-opacity="0" offset="100%"></stop>
        </linearGradient>
        <path d="M12,0 L370,0 C376.627417,-1.21743675e-15 382,5.372583 382,12 L382,50 L382,50 L0,50 L0,12 C-8.11624501e-16,5.372583 5.372583,1.21743675e-15 12,0 Z" id="path-2"></path>
        <filter x="-0.7%" y="-5.0%" width="101.3%" height="110.0%" filterUnits="objectBoundingBox" id="filter-3">
            <feGaussianBlur stdDeviation="1.5" in="SourceAlpha" result="shadowBlurInner1"></feGaussianBlur>
            <feOffset dx="0" dy="2" in="shadowBlurInner1" result="shadowOffsetInner1"></feOffset>
            <feComposite in="shadowOffsetInner1" in2="SourceAlpha" operator="arithmetic" k2="-1" k3="1" result="shadowInnerInner1"></feComposite>
            <feColorMatrix values="0 0 0 0 1   0 0 0 0 0.849046842   0 0 0 0 0.785327744  0 0 0 0.174879808 0" type="matrix" in="shadowInnerInner1"></feColorMatrix>
        </filter>
        <linearGradient x1="58.3441267%" y1="52.4678264%" x2="11.871077%" y2="31.6895128%" id="linearGradient-4">
            <stop stop-color="#FFFFFF" stop-opacity="0" offset="0%"></stop>
            <stop stop-color="#FFFFFF" offset="100%"></stop>
        </linearGradient>
        <linearGradient x1="42.9792839%" y1="51.7531764%" x2="19.7783588%" y2="20.7103058%" id="linearGradient-5">
            <stop stop-color="#FFFFFF" stop-opacity="0" offset="0%"></stop>
            <stop stop-color="#FFFFFF" offset="100%"></stop>
        </linearGradient>
        <linearGradient x1="50%" y1="100%" x2="64.4033438%" y2="24.4554544%" id="linearGradient-6">
            <stop stop-color="#FFA64D" offset="0%"></stop>
            <stop stop-color="#FF1920" offset="100%"></stop>
        </linearGradient>
        <linearGradient x1="88.28125%" y1="34.0155631%" x2="50%" y2="159.594455%" id="linearGradient-7">
            <stop stop-color="#FE474C" offset="0%"></stop>
            <stop stop-color="#FED8B7" offset="100%"></stop>
        </linearGradient>
        <path d="M7.60993201,14.1251443 C9.04062584,15.5849572 10.7836008,15.5849572 11.5351323,15.2514983 C13.6080475,14.0056926 15,12.0404116 15,9.39917901 C15,7.86411891 14.3484409,6.28484697 13.3864208,4.86749807 C12.5889963,6.25110137 11.383273,6.44609529 11.1769446,4.52937072 C10.8856329,1.82317804 8.60771804,0.2857439 7.39504149,0 C7.10097613,3.31825293 1.01758056,4.80947245 1,9.39917901 C1,12.897844 3.44239475,15.3650012 6.67464965,16 C5.72985153,14.8915523 6.17923818,12.6653314 7.60993201,14.1251443 Z" id="path-8"></path>
        <linearGradient x1="16.6427431%" y1="45.8699246%" x2="26.0030456%" y2="52.815283%" id="linearGradient-9">
            <stop stop-color="#DFCDC4" offset="0%"></stop>
            <stop stop-color="#917C71" offset="100%"></stop>
        </linearGradient>
    </defs>
    <g id="通用" stroke="none" stroke-width="1" fill="none" fill-rule="evenodd">
        <g id="企业搜索-搜索历史" transform="translate(-16.000000, -236.000000)">
            <g id="编组" transform="translate(16.000000, 236.000000)">
                <g id="编组-2">
                    <g id="矩形">
                        <use fill="url(#linearGradient-1)" fill-rule="evenodd" xlink:href="#path-2"></use>
                        <use fill="black" fill-opacity="1" filter="url(#filter-3)" xlink:href="#path-2"></use>
                    </g>
                    <polygon id="路径-12" fill="url(#linearGradient-4)" points="239.253268 6.73209568e-14 221 36.7097178 277.501325 36.7097178 295.754593 6.73209568e-14"></polygon>
                    <polygon id="路径-12备份" fill="url(#linearGradient-5)" opacity="0.600000024" points="280.253268 6.73209568e-14 262 36.7097178 318.501325 36.7097178 336.754593 6.73209568e-14"></polygon>
                </g>
                <g id="通用/热" transform="translate(16.000000, 17.000000)">
                    <rect id="矩形" x="0" y="0" width="16" height="16"></rect>
                    <g id="椭圆形">
                        <use fill="url(#linearGradient-6)" xlink:href="#path-8"></use>
                        <use fill="url(#linearGradient-7)" xlink:href="#path-8"></use>
                    </g>
                </g>
                <path d="M51.0094937,21.1626506 L48.3037975,21.1626506 L48.3037975,21.8253012 C48.3037975,22.3273092 48.2827004,22.7640562 48.2405063,23.1355422 L50.2025316,23.7981928 L50.2025316,25.8012048 L47.8607595,25.0180723 C47.5548523,26.002008 47.085443,26.9959839 46.4525316,28 L44,28 C44.9493671,26.8554217 45.6139241,25.6506024 45.9936709,24.3855422 L45.2183544,24.1295181 L45.2183544,22.126506 L46.3259494,22.503012 C46.3364979,22.3524096 46.3417722,22.126506 46.3417722,21.8253012 L46.3417722,21.1626506 L44.9968354,21.1626506 L44.9968354,19.2801205 L46.3417722,19.2801205 L46.3417722,18 L48.3037975,18 L48.3037975,19.2801205 L52.971519,19.2801205 L52.971519,26.0873494 L54,26.0873494 L54,28 L51.0094937,28 L51.0094937,21.1626506 Z M41.0762332,29 L43,29 L41.9237668,32 L40,32 L41.0762332,29 Z M40,22.8636364 L41.6049383,22.5757576 L41.6049383,21.1212121 L40.154321,21.1212121 L40.154321,19.2424242 L41.6049383,19.2424242 L41.6049383,18 L43.5802469,18 L43.5802469,19.2424242 L44.845679,19.2424242 L44.845679,21.1212121 L43.5802469,21.1212121 L43.5802469,22.2272727 L45,21.969697 L45,23.9090909 L43.5802469,24.1515152 L43.5802469,28 L40.4166667,28 L40.4166667,26.1060606 L41.6049383,26.1060606 L41.6049383,24.5 L40,24.7727273 L40,22.8636364 Z M44.6390533,29 L47,29 L46.3609467,32 L44,32 L44.6390533,29 Z M49.3609467,29 L50,32 L47.6390533,32 L47,29 L49.3609467,29 Z M52.9237668,29 L54,32 L52.0762332,32 L51,29 L52.9237668,29 Z M65.5085389,29.9271071 L67.0113852,29.9271071 L67.0113852,20.1047836 L61,20.1047836 L61,18 L69,18 L68.9848197,32 L65.5085389,32 L65.5085389,29.9271071 Z M58,21 L58,32 L56.0151515,32 L56,21 L58,21 Z M58.8849558,18 L60,21 L58.1150442,21 L57,18 L58.8849558,18 Z M84,32 C83.2486772,31.866813 82.473545,31.679839 81.6746032,31.4390779 C80.8756614,31.1983169 80.1322751,30.9191365 79.4444444,30.6015368 C78.1005291,31.2572265 76.6190476,31.7233809 75,32 L75,30.0482986 C75.8465608,29.8843761 76.6349206,29.6538602 77.3650794,29.3567508 C76.8571429,28.9059641 76.4100529,28.3578485 76.0238095,27.712404 C75.6375661,27.0669594 75.3650794,26.3805342 75.2063492,25.6531284 L78.6666667,25.6531284 L78.6666667,24.8232711 L75.2063492,24.8232711 L75.2063492,18.2305159 C76.5079365,18.2100256 77.5449735,18.133187 78.3174603,18 L78.3174603,19.6750823 C77.957672,19.7365532 77.4973545,19.7929016 76.9365079,19.8441273 L76.9365079,20.8430296 L78.0793651,20.8430296 L78.0793651,22.2568606 L76.9365079,22.2568606 L76.9365079,23.1328211 L78.6666667,23.1328211 L78.6666667,18.0307355 L80.4761905,18.0307355 L80.4761905,23.1328211 L82.2063492,23.1328211 L82.2063492,22.2107574 L80.9047619,22.2107574 L80.9047619,20.7969265 L82.2063492,20.7969265 L82.2063492,19.7826564 L80.8253968,19.7826564 L80.8253968,18.0922064 L83.9365079,18.0922064 L83.9365079,24.8232711 L80.4761905,24.8232711 L80.4761905,25.6531284 L83.7936508,25.6531284 C83.6243386,26.3088181 83.3544974,26.9619466 82.984127,27.6125137 C82.6137566,28.2630809 82.1216931,28.8444932 81.5079365,29.3567508 C82.3015873,29.6743505 83.1322751,29.9048664 84,30.0482986 L84,32 Z M70,25.3325967 L71.6352201,24.9303867 L71.6352201,22.0994475 L70.1572327,22.0994475 L70.1572327,20.1502762 L71.6352201,20.1502762 L71.6352201,18 L73.5849057,18 L73.5849057,20.1502762 L74.8427673,20.1502762 L74.8427673,22.0994475 L73.5849057,22.0994475 L73.5849057,24.4662983 L75,24.1259669 L75,26.2762431 L73.5849057,26.6165746 L73.5849057,32 L70.4245283,32 L70.4245283,30.1281768 L71.6352201,30.1281768 L71.6352201,27.080663 L70,27.4828729 L70,25.3325967 Z M78,27 C78.1702128,27.1647059 78.3856383,27.3392157 78.6462766,27.5235294 C78.9069149,27.7078431 79.1861702,27.8666667 79.4840426,28 L79.5,28 L79.5159574,28 C80.1329787,27.7019608 80.6276596,27.3686275 81,27 L78,27 Z M85,21.0947368 L90.9846154,21.0947368 L90.9846154,20.4 L85.8461538,20.4 L85.8461538,18.6 L90.9846154,18.6 L90.9846154,18 L93.0153846,18 L93.0153846,18.6 L98.1538462,18.6 L98.1538462,20.4 L93.0153846,20.4 L93.0153846,21.0947368 L99,21.0947368 L99,24 L97,24 L97,22.8789474 L87,22.8789474 L87,24 L85,24 L85,21.0947368 Z M85,32 C85.8125,30.9789474 86.421875,29.9789474 86.828125,29 L89,29 C88.6145833,30 88.0677083,31 87.359375,32 L85,32 Z M86,26.8969072 L89.8925714,26.8969072 L90.5908571,26.371134 L86.728,25.6752577 L86.728,23.8041237 L88.8822857,24.2216495 L90.5314286,23 L93.384,23 L91.0811429,24.6391753 L92.7154286,24.9639175 L93.9634286,24.0360825 L97.024,24.0360825 L93.1908571,26.8969072 L96.2068571,26.8969072 L95.6125714,25.5051546 L97.6182857,25.5051546 L99,28.7525773 L93.2354286,28.7525773 L93.2354286,32 L91.304,32 L91.304,28.7525773 L86,28.7525773 L86,26.8969072 Z M97.171875,29 C97.578125,29.9789474 98.1875,30.9789474 99,32 L96.640625,32 C95.9322917,31 95.3854167,30 95,29 L97.171875,29 Z" id="形状结合" fill="url(#linearGradient-9)" fill-rule="nonzero"></path>
            </g>
        </g>
    </g>
</svg>