<?xml version="1.0" encoding="UTF-8"?>
<svg width="12px" height="12px" viewBox="0 0 12 12" version="1.1" xmlns="http://www.w3.org/2000/svg" xmlns:xlink="http://www.w3.org/1999/xlink">
    <title>切片</title>
    <g id="高级搜索" stroke="none" stroke-width="1" fill="none" fill-rule="evenodd">
        <g id="高级搜索-增加地区" transform="translate(-386.000000, -157.000000)">
            <g id="公开模块标题备份-14" transform="translate(0.000000, 138.000000)">
                <g id="图标/12/右箭头备份-3" transform="translate(386.000000, 19.000000)">
                    <rect id="矩形备份-5" transform="translate(6.000000, 6.000000) rotate(-360.000000) translate(-6.000000, -6.000000) " x="5.68434189e-14" y="0" width="12" height="12"></rect>
                    <path d="M7.20710678,3.41161165 L11.7474874,7.95199224 C11.9036971,8.10820196 11.9036971,8.36146795 11.7474874,8.51767767 L11.2525126,9.01265241 C11.0962964,9.16884718 10.8430387,9.16885199 10.6868164,9.01266316 L6.5,4.82616504 L6.5,4.82616504 L2.31318356,9.01266316 C2.15696134,9.16885199 1.90370364,9.16884718 1.74748737,9.01265241 L1.25251263,8.51767767 C1.09630291,8.36146795 1.09630291,8.10820196 1.25251263,7.95199224 L5.79289322,3.41161165 C6.18341751,3.02108736 6.81658249,3.02108736 7.20710678,3.41161165 Z" id="路径" fill="#848C99" fill-rule="nonzero" transform="translate(6.500000, 6.000000) rotate(-270.000000) translate(-6.500000, -6.000000) "></path>
                </g>
            </g>
        </g>
    </g>
</svg>